<svg width="1440" height="810" viewBox="0 0 1440 810" fill="none" xmlns="http://www.w3.org/2000/svg">
<g clip-path="url(#clip0_2085_31744)">
<rect width="1440" height="810" fill="#F6F9FB"/>
<path d="M689.069 -203.125C650.353 -287.411 565.957 -342.786 473.1 -341.401C417.923 -340.566 363.275 -319.881 336.91 -251.682C272.666 -85.842 125.028 -94.3535 170.577 31.4883C224.662 180.911 415.806 195.042 542.209 106.02C651.866 28.7913 779.396 -6.44278 689.069 -203.125Z" fill="#F1F5F8"/>
<path d="M1746.96 703.354C1704.9 522.634 1561.99 380.179 1379.88 345.532C1271.67 324.968 1156.56 343.508 1077.8 466.524C886.01 765.609 600.747 689.53 639.586 954.421C685.703 1268.95 1053.79 1373.54 1336.45 1249.98C1581.67 1142.78 1845.08 1125.06 1746.96 703.354Z" fill="#F1F5F8"/>
<path d="M1673.85 827.461C1643.57 697.329 1540.68 594.749 1409.57 569.8C1331.66 554.992 1248.79 568.342 1192.08 656.924C1054 872.29 848.619 817.507 876.582 1008.25C909.785 1234.74 1174.79 1310.05 1378.3 1221.08C1554.85 1143.89 1744.49 1131.13 1673.85 827.461Z" fill="#ECF2F6"/>
</g>
<defs>
<clipPath id="clip0_2085_31744">
<rect width="1440" height="810" fill="white"/>
</clipPath>
</defs>
</svg>
